<?xml version="1.0" ?>
<svg xmlns="http://www.w3.org/2000/svg" width="50mm" height="137.5mm" viewBox="0 0 50 137.5">
  <rect x="0" y="0" width="50" height="137.5" rx="5" ry="5" fill="#e8ebee" stroke="#000" stroke-width="0.5"/>
  <g>
    <rect x="4" y="5" width="10" height="6" rx="5" ry="5" fill="#f9f9f9" stroke="#000" stroke-width="0.5"/>
    <text x="9.0" y="9.6" font-size="4" text-anchor="middle" font-family="Arial">F1</text>
  </g>
  <g>
    <rect x="17" y="5" width="10" height="6" rx="5" ry="5" fill="#f9f9f9" stroke="#000" stroke-width="0.5"/>
    <text x="22.0" y="9.6" font-size="4" text-anchor="middle" font-family="Arial">F2</text>
  </g>
  <g>
    <rect x="30" y="5" width="10" height="6" rx="5" ry="5" fill="#f9f9f9" stroke="#000" stroke-width="0.5"/>
    <text x="35.0" y="9.6" font-size="4" text-anchor="middle" font-family="Arial">F3</text>
  </g>
  <g>
    <rect x="17.5" y="17" width="15" height="7" rx="5" ry="5" fill="#f9f9f9" stroke="#000" stroke-width="0.5"/>
    <text x="25.0" y="22.1" font-size="4" text-anchor="middle" font-family="Arial">REC</text>
  </g>
  <g>
    <rect x="21.5" y="23" width="7" height="7" rx="5" ry="5" fill="#f9f9f9" stroke="#000" stroke-width="0.5"/>
    <text x="25.0" y="28.5" font-size="5" text-anchor="middle" font-family="Arial">▲</text>
  </g>
  <g>
    <rect x="21.5" y="39" width="7" height="7" rx="5" ry="5" fill="#f9f9f9" stroke="#000" stroke-width="0.5"/>
    <text x="25.0" y="44.5" font-size="5" text-anchor="middle" font-family="Arial">▼</text>
  </g>
  <g>
    <rect x="14.5" y="31" width="7" height="7" rx="5" ry="5" fill="#f9f9f9" stroke="#000" stroke-width="0.5"/>
    <text x="18.0" y="36.5" font-size="5" text-anchor="middle" font-family="Arial">◄</text>
  </g>
  <g>
    <rect x="28.5" y="31" width="7" height="7" rx="5" ry="5" fill="#f9f9f9" stroke="#000" stroke-width="0.5"/>
    <text x="32.0" y="36.5" font-size="5" text-anchor="middle" font-family="Arial">►</text>
  </g>
  <g>
    <rect x="21.5" y="31" width="7" height="7" rx="5" ry="5" fill="#fff" stroke="#000" stroke-width="0.5"/>
    <text x="25.0" y="35.9" font-size="3.5" text-anchor="middle" font-family="Arial">OK</text>
  </g>
  <g>
    <rect x="9.0" y="53" width="14" height="7" rx="5" ry="5" fill="#f9f9f9" stroke="#000" stroke-width="0.5"/>
    <text x="16.0" y="58.1" font-size="4" text-anchor="middle" font-family="Arial">BACK</text>
  </g>
  <g>
    <rect x="27.0" y="53" width="14" height="7" rx="5" ry="5" fill="#f9f9f9" stroke="#000" stroke-width="0.5"/>
    <text x="34.0" y="58.1" font-size="4" text-anchor="middle" font-family="Arial">DELETE</text>
  </g>
  <rect x="13.0" y="63" width="24" height="6" rx="2" ry="2" fill="#ddd" stroke="#000" stroke-width="0.3"/>
  <line x1="15.0" y1="64.5" x2="15.0" y2="67.5" stroke="#555" stroke-width="0.4"/>
  <line x1="19.0" y1="64.5" x2="19.0" y2="67.5" stroke="#555" stroke-width="0.4"/>
  <line x1="23.0" y1="64.5" x2="23.0" y2="67.5" stroke="#555" stroke-width="0.4"/>
  <line x1="27.0" y1="64.5" x2="27.0" y2="67.5" stroke="#555" stroke-width="0.4"/>
  <line x1="31.0" y1="64.5" x2="31.0" y2="67.5" stroke="#555" stroke-width="0.4"/>
  <line x1="35.0" y1="64.5" x2="35.0" y2="67.5" stroke="#555" stroke-width="0.4"/>
  <text x="25.0" y="135.5" font-size="3" text-anchor="middle" font-family="Arial" fill="#333">50 mm × 137.5 mm</text>
</svg>
